<?xml version="1.0" encoding="UTF-8" standalone="no"?>
<svg
   xmlns:dc="http://purl.org/dc/elements/1.1/"
   xmlns:cc="http://creativecommons.org/ns#"
   xmlns:rdf="http://www.w3.org/1999/02/22-rdf-syntax-ns#"
   xmlns:svg="http://www.w3.org/2000/svg"
   xmlns="http://www.w3.org/2000/svg"
   xmlns:sodipodi="http://sodipodi.sourceforge.net/DTD/sodipodi-0.dtd"
   xmlns:inkscape="http://www.inkscape.org/namespaces/inkscape"
   viewBox="0 0 50.000069 70.023903"
   version="1.1"
   x="0px"
   y="0px"
   id="svg2"
   inkscape:version="0.91 r13725"
   sodipodi:docname="noun_736528_cc.svg"
   width="50.000069"
   height="70.023903">
  <metadata
     id="metadata32">
    <rdf:RDF>
      <cc:Work
         rdf:about="">
        <dc:format>image/svg+xml</dc:format>
        <dc:type
           rdf:resource="http://purl.org/dc/dcmitype/StillImage" />
        <dc:title>35 -Sword in Stone- (medieval, antique, old)</dc:title>
      </cc:Work>
    </rdf:RDF>
  </metadata>
  <defs
     id="defs30" />
  <sodipodi:namedview
     pagecolor="#ffffff"
     bordercolor="#666666"
     borderopacity="1"
     objecttolerance="10"
     gridtolerance="10"
     guidetolerance="10"
     inkscape:pageopacity="0"
     inkscape:pageshadow="2"
     inkscape:window-width="760"
     inkscape:window-height="480"
     id="namedview28"
     showgrid="false"
     fit-margin-top="5"
     fit-margin-left="5"
     fit-margin-bottom="5"
     fit-margin-right="5"
     inkscape:zoom="3.095082"
     inkscape:cx="25"
     inkscape:cy="26.903297"
     inkscape:window-x="0"
     inkscape:window-y="0"
     inkscape:window-maximized="0"
     inkscape:current-layer="svg2" />
  <title
     id="title4">35 -Sword in Stone- (medieval, antique, old)</title>
  <desc
     id="desc6">Created with Sketch.</desc>
  <g
     id="g8"
     style="fill:none;fill-rule:evenodd;stroke:none;stroke-width:1"
     transform="translate(5,4.9956)">
    <g
       transform="translate(-613,-710)"
       id="g10"
       style="fill:#000000">
      <g
         transform="translate(613,710)"
         id="g12">
        <path
           d="M 15.707,48.2973 C 15.52,48.1103 15.265,48.0043 15,48.0043 l -7,0 c -0.209,0 -0.412,0.065 -0.581,0.186 l -7,5 C 0.156,53.3783 0,53.6813 0,54.0043 l 0,5 c 0,0.552 0.447,0.999 0.999,1 l 18,0.024 0.001,0 c 0.265,0 0.519,-0.105 0.707,-0.292 0.187,-0.188 0.293,-0.442 0.293,-0.708 l 0,-6.024 c 0,-0.265 -0.106,-0.52 -0.293,-0.707 l -4,-4 z"
           id="path14"
           inkscape:connector-curvature="0" />
        <path
           d="m 0.9261,50.3703 5.074,-3.624 0,-2.466 -1.859,-0.266 c -0.314,-0.045 -0.626,0.06 -0.848,0.283 l -3,3 c -0.289,0.289 -0.373,0.725 -0.212,1.101 l 0.845,1.972 z"
           id="path16"
           inkscape:connector-curvature="0" />
        <path
           d="m 30.8024,46.2633 4.429,0.739 0.688,-1.604 c 0.161,-0.376 0.077,-0.812 -0.212,-1.101 l -3,-3 c -0.223,-0.223 -0.536,-0.328 -0.849,-0.283 l -3.266,0.467 1.117,2.234 1.093,2.548 z"
           id="path18"
           inkscape:connector-curvature="0" />
        <path
           d="m 18,16.0044 0,-10 2,0 0,10 -0.955,0 -0.097,0 -0.013,0 -0.935,0 z m 2,24.893 0,-13.893 c 0,-0.552 -0.448,-1 -1,-1 -0.552,0 -1,0.448 -1,1 l 0,14.256 -2,0.364 0,-18.933 c 0.396,-0.189 0.809,-0.331 1.23,-0.443 0.15,-0.038 0.302,-0.075 0.456,-0.104 0.125,-0.024 0.25,-0.047 0.378,-0.065 0.296,-0.04 0.596,-0.069 0.902,-0.073 0.009,0 0.018,-0.002 0.027,-0.002 0.012,0 0.023,0.002 0.034,0.002 0.288,0.004 0.571,0.03 0.851,0.068 0.147,0.021 0.293,0.051 0.438,0.081 0.123,0.025 0.244,0.053 0.364,0.084 0.197,0.053 0.393,0.11 0.584,0.181 0.022,0.008 0.044,0.018 0.066,0.026 0.228,0.087 0.452,0.184 0.67,0.296 l 0,17.791 -2,0.364 z m -2.879,5.986 2.601,2.601 8.164,-3.266 c 0.211,-0.084 0.428,-0.135 0.648,-0.17 l -0.639,-1.491 -2,-4 c -0.199,-0.398 -0.644,-0.617 -1.074,-0.537 L 24,40.1694 24,23.6664 c 0.884,0.136 1.818,-0.121 2.508,-0.767 0.665,-0.623 1.005,-1.5 0.935,-2.408 -0.072,-0.925 -0.557,-1.758 -1.331,-2.285 -1.261,-0.858 -2.653,-1.471 -4.112,-1.83 l 0,-10.408 c 1.13,-0.174 2,-1.144 2,-2.322 l 0,-1.284 c 0,-1.3 -1.058,-2.358 -2.358,-2.358 l -5.284,0 c -1.3,0 -2.358,1.058 -2.358,2.358 l 0,1.284 c 0,1.178 0.87,2.148 2,2.322 l 0,10.378 c -1.554,0.365 -3.035,1.019 -4.375,1.943 -0.719,0.496 -1.172,1.286 -1.244,2.168 -0.074,0.909 0.26,1.794 0.92,2.429 0.579,0.558 1.334,0.844 2.088,0.844 0.205,0 0.409,-0.029 0.611,-0.072 l 0,18.326 -4.804,-0.96 c -0.294,-0.06 -0.598,0.016 -0.83,0.207 C 8.134,41.4214 8,41.7044 8,42.0044 l 0,4 7,0 c 0.801,0 1.555,0.312 2.121,0.879 l 0,0 z"
           id="path20"
           inkscape:connector-curvature="0" />
        <path
           d="m 39.9141,58.5981 -4,-9 c -0.137,-0.307 -0.418,-0.525 -0.75,-0.58 l -6,-1 c -0.182,-0.03 -0.366,-0.01 -0.536,0.058 l -7.386,2.954 c 0.483,0.548 0.758,1.237 0.758,1.974 l 0,6.025 c 0,0.346 -0.069,0.679 -0.181,0.996 l 17.182,-0.021 c 0.339,0 0.653,-0.172 0.838,-0.455 0.184,-0.284 0.212,-0.642 0.075,-0.951"
           id="path22"
           inkscape:connector-curvature="0" />
      </g>
    </g>
  </g>
</svg>
