<?xml version="1.0" encoding="UTF-8" standalone="no"?>
<svg
   xmlns:dc="http://purl.org/dc/elements/1.1/"
   xmlns:cc="http://creativecommons.org/ns#"
   xmlns:rdf="http://www.w3.org/1999/02/22-rdf-syntax-ns#"
   xmlns:svg="http://www.w3.org/2000/svg"
   xmlns="http://www.w3.org/2000/svg"
   xmlns:sodipodi="http://sodipodi.sourceforge.net/DTD/sodipodi-0.dtd"
   xmlns:inkscape="http://www.inkscape.orzg/namespaces/inkscape"
   version="1.1"
   x="0px"
   y="0px"
   viewBox="0 0 281.218 250"
   xml:space="preserve"
   id="svg2"
   inkscape:version="0.91 r13725"
   sodipodi:docname="hunter.svg"
   width="281.21799"
   height="250"><metadata
     id="metadata32"><rdf:RDF><cc:Work
         rdf:about=""><dc:format>image/svg+xml</dc:format><dc:type
           rdf:resource="http://purl.org/dc/dcmitype/StillImage" /><dc:title></dc:title></cc:Work></rdf:RDF></metadata><defs
     id="defs30" /><sodipodi:namedview
     pagecolor="#ffffff"
     bordercolor="#666666"
     borderopacity="1"
     objecttolerance="10"
     gridtolerance="10"
     guidetolerance="10"
     inkscape:pageopacity="0"
     inkscape:pageshadow="2"
     inkscape:window-width="1366"
     inkscape:window-height="706"
     id="namedview28"
     showgrid="false"
     inkscape:zoom="2.3483056"
     inkscape:cx="119.21084"
     inkscape:cy="238.03233"
     inkscape:window-x="-8"
     inkscape:window-y="-8"
     inkscape:window-maximized="1"
     inkscape:current-layer="svg2" /><g
     id="g4"
     transform="translate(0.42583894,18.12694)"><path
       d="m 172.161,151.449 c 3.571,0.768 11.709,2.839 18.98,6.652 4.688,2.414 8.899,5.499 11.562,8.782 2.667,3.359 4.044,6.493 4.105,11.192 -0.002,3 -0.67,6.807 -2.698,11.671 -2.025,4.852 -5.43,10.71 -10.695,17.482 -4.237,5.451 -3.251,13.305 2.201,17.541 2.28,1.771 4.981,2.631 7.661,2.631 3.728,0 7.415,-1.66 9.88,-4.831 6.322,-8.143 10.929,-15.799 14.018,-23.181 3.084,-7.369 4.637,-14.516 4.634,-21.313 0.063,-11.114 -4.355,-20.801 -10.326,-27.707 -7.649,-8.859 -17.233,-14.124 -25.675,-17.624 -10.608,3.14 -19.111,12.636 -23.647,18.705 z"
       id="path6"
       inkscape:connector-curvature="0" /><path
       d="m 143.011,132.124 c -0.13,0.457 -0.258,0.911 -0.397,1.375 -0.602,1.121 -1.048,2.351 -1.289,3.669 l -10e-4,0 c 0,0 -0.001,0.004 -0.007,0.036 -0.139,0.705 -2.164,10.289 -9.499,23.06 -7.538,13.112 -20.541,29.588 -43.207,43.919 -5.836,3.686 -7.581,11.406 -3.893,17.243 2.377,3.766 6.434,5.828 10.581,5.828 2.282,0 4.591,-0.624 6.664,-1.934 27.272,-17.208 43.33,-37.795 52.416,-54.16 4.657,-8.381 7.52,-15.65 9.234,-20.894 -4.582,-5.52 -11.976,-13.295 -20.602,-18.142 z m -1.699,5.117 0,-0.002 10e-4,0 c -10e-4,0.001 -10e-4,0.001 -10e-4,0.002 z"
       id="path8"
       inkscape:connector-curvature="0" /><path
       d="m 181.895,74.086 c -2.651,11.613 3.034,23.11 9.31,32.77 0.05,-7.247 -0.424,-14.357 -1.361,-21.739 0.708,0.663 1.436,1.329 2.189,1.996 12.828,11.384 32.751,23.04 59.44,23.04 0.02,0 0.039,0 0.059,0 1.243,0 2.481,-0.027 3.718,-0.072 4.415,-0.166 7.862,-3.878 7.698,-8.293 -0.164,-4.414 -3.877,-7.861 -8.293,-7.695 -1.072,0.038 -2.112,0.062 -3.123,0.062 -21.933,-0.017 -37.947,-9.388 -48.902,-19.029 -5.442,-4.808 -9.524,-9.657 -12.202,-13.249 -1.338,-1.795 -2.328,-3.274 -2.961,-4.272 -0.146,-0.23 -0.27,-0.429 -0.379,-0.606 -1.725,4.654 -3.745,10.745 -5.193,17.087 z"
       id="path10"
       inkscape:connector-curvature="0" /><path
       d="m 220.252,8.679 c -9.925,0.188 -19.845,1.372 -29.673,2.654 -2.236,0.292 -4.47,0.61 -6.704,0.938 1.85,3.519 2.804,7.416 2.786,11.411 0.593,-0.073 1.211,-0.15 1.609,-0.2 4.348,-0.488 8.706,-0.873 13.072,-1.135 2.14,-0.128 4.282,-0.202 6.424,-0.249 0.244,-0.006 0.43,-0.01 0.585,-0.015 0.032,0 0.05,0.001 0.083,0.001 1.262,0.011 2.523,0.06 3.783,0.117 1.631,0.075 3.255,0.231 4.876,0.425 0.31,0.063 1.716,0.284 2.075,0.364 0.87,0.193 1.723,0.451 2.57,0.726 0.125,0.041 0.258,0.067 0.385,0.104 -1.523,-4.738 -1.945,-9.181 -1.945,-12.662 0.001,-0.893 0.03,-1.72 0.074,-2.479 z"
       id="path12"
       inkscape:connector-curvature="0" /><path
       d="m 137.791,21.299 c -2.956,0.713 -5.906,1.439 -8.847,2.193 -3.411,0.874 -6.808,1.806 -10.185,2.802 -2.301,0.68 -4.583,1.422 -6.868,2.153 -0.97,-2.573 -3.235,-4.58 -6.143,-5.073 -4.355,-0.741 -8.484,2.19 -9.226,6.546 -0.173,1.021 -0.326,2.016 -0.468,2.999 -0.561,0.115 -1.12,0.234 -1.68,0.349 -19.373,3.938 -38.955,6.879 -58.496,9.837 -5.859,0.888 -11.722,1.752 -17.578,2.661 -5.245,0.814 -15.566,3.199 -18.008,8.839 -2.401,5.544 10.659,3.997 12.561,3.702 17.211,-2.673 34.448,-5.164 51.627,-8.045 9.998,-1.677 20.376,-3.166 30.549,-5.323 -0.006,0.396 -0.015,0.795 -0.015,1.184 0.002,6.19 0.799,11.502 2.392,16.093 2.333,6.883 6.772,12.07 11.895,14.96 5.113,2.928 10.495,3.739 15.177,3.745 5.319,-0.033 9.965,-1.031 13.165,-1.953 4.551,9.069 8.74,18.811 8.649,32.107 11.027,-12.225 27.002,-30.863 30.638,-59.151 -0.382,0.023 -0.764,0.071 -1.142,0.174 -12.205,3.176 -24.408,6.355 -36.614,9.535 -0.494,0.133 -0.962,0.314 -1.404,0.533 -0.598,0.099 -1.193,0.259 -1.776,0.502 l -0.001,-0.002 -0.017,0.007 0.001,10e-4 c -0.422,0.202 -6.158,2.297 -11.498,2.246 -1.863,0.002 -3.641,-0.231 -5.135,-0.714 -2.256,-0.771 -3.847,-1.793 -5.39,-4.179 -1.513,-2.4 -2.94,-6.666 -2.938,-13.904 -0.001,-1.651 0.079,-3.461 0.24,-5.412 2.471,-0.792 4.912,-1.648 7.307,-2.599 0.604,-0.239 1.453,-0.557 2.224,-0.839 0.53,-0.16 1.061,-0.32 1.592,-0.477 3.766,-1.111 7.566,-2.109 11.373,-3.075 1.838,-0.466 3.682,-0.912 5.527,-1.352 -1.34,-3.49 -1.855,-7.26 -1.488,-11.07 z m -15.278,15.348 c 0.209,-0.074 0.242,-0.085 0,0 l 0,0 z"
       id="path14"
       inkscape:connector-curvature="0" /><path
       d="m 270.347,3.607 c -0.99,-0.326 -4.35,1.891 -5.381,1.594 -1.263,-0.365 -0.204,-3.24 -1.469,-3.549 -4.583,-1.117 -8.966,-1.799 -11.609,-1.625 -1.205,0.08 -2.75,0.494 -4.493,1.135 -0.822,0.303 0.2,3.332 -0.697,3.723 -1.004,0.437 -3.933,-1.752 -4.992,-1.234 -0.67,0.329 -1.348,0.674 -2.026,1.024 -0.11,1.066 -0.198,2.404 -0.198,3.944 0,4.536 0.778,10.796 4.003,17.049 8.251,1.381 15.256,-0.057 15.256,-0.057 0,0 1.595,-0.865 3.935,-2.203 0.88,-0.504 -0.868,-2.713 0.179,-3.33 1.029,-0.607 4.849,0.377 5.951,-0.301 6.04,-3.711 12.535,-8.178 12.409,-10.15 -0.11,-1.735 -4.974,-4.079 -10.868,-6.02 z"
       id="path16"
       inkscape:connector-curvature="0" /><path
       d="m 236.483,8.619 c 0,-0.812 0.023,-1.569 0.061,-2.27 -1.472,0.81 -2.914,1.63 -4.266,2.42 -0.281,-0.014 -0.562,-0.028 -0.843,-0.04 -0.011,0.372 -0.021,0.746 -0.021,1.146 -10e-4,3.706 0.521,8.562 2.467,13.622 0.392,-0.097 0.781,-0.2 1.169,-0.308 1.569,0.693 3.159,1.247 4.736,1.676 -2.64,-6.051 -3.303,-11.899 -3.303,-16.246 z"
       id="path18"
       inkscape:connector-curvature="0" /><path
       d="m 228.414,9.876 c 0,-0.425 0.008,-0.83 0.019,-1.226 -1.732,-0.026 -3.458,-0.024 -5.171,-0.014 -0.049,0.763 -0.085,1.601 -0.085,2.522 0,3.612 0.495,8.317 2.323,13.24 1.74,0.113 3.565,-0.01 5.399,-0.298 -1.964,-5.316 -2.485,-10.361 -2.485,-14.224 z"
       id="path20"
       inkscape:connector-curvature="0" /><ellipse
       transform="matrix(0.1277,-0.9918,0.9918,0.1277,118.0367,181.4485)"
       cx="162.17"
       cy="23.622"
       rx="22.493999"
       ry="22.495001"
       id="ellipse22" /></g></svg>