<?xml version="1.0" encoding="UTF-8" standalone="no"?>
<svg
   xmlns:dc="http://purl.org/dc/elements/1.1/"
   xmlns:cc="http://creativecommons.org/ns#"
   xmlns:rdf="http://www.w3.org/1999/02/22-rdf-syntax-ns#"
   xmlns:svg="http://www.w3.org/2000/svg"
   xmlns="http://www.w3.org/2000/svg"
   xmlns:sodipodi="http://sodipodi.sourceforge.net/DTD/sodipodi-0.dtd"
   xmlns:inkscape="http://www.inkscape.org/namespaces/inkscape"
   version="1.1"
   x="0px"
   y="0px"
   viewBox="0 0 77.637001 102.265"
   enable-background="new 0 0 100 92.316"
   xml:space="preserve"
   id="svg2"
   inkscape:version="0.91 r13725"
   sodipodi:docname="noun_47819_cc.svg"
   width="77.637001"
   height="102.265"><metadata
     id="metadata24"><rdf:RDF><cc:Work
         rdf:about=""><dc:format>image/svg+xml</dc:format><dc:type
           rdf:resource="http://purl.org/dc/dcmitype/StillImage" /><dc:title></dc:title></cc:Work></rdf:RDF></metadata><defs
     id="defs22" /><sodipodi:namedview
     pagecolor="#ffffff"
     bordercolor="#666666"
     borderopacity="1"
     objecttolerance="10"
     gridtolerance="10"
     guidetolerance="10"
     inkscape:pageopacity="0"
     inkscape:pageshadow="2"
     inkscape:window-width="760"
     inkscape:window-height="480"
     id="namedview20"
     showgrid="false"
     fit-margin-top="5"
     fit-margin-left="5"
     fit-margin-bottom="5"
     fit-margin-right="5"
     inkscape:zoom="2.0451493"
     inkscape:cx="41.895"
     inkscape:cy="39.618502"
     inkscape:window-x="0"
     inkscape:window-y="0"
     inkscape:window-maximized="0"
     inkscape:current-layer="svg2" /><g
     id="g4"
     transform="translate(-8.105,4.9489999)"><circle
       cx="61.577999"
       cy="7.4970002"
       r="7.4460001"
       id="circle6" /></g><g
     id="g8"
     transform="translate(-8.105,4.9489999)"><g
       id="g10"><path
         d="m 27.167,48.938 0,-2.116 c -2.14,-0.309 -4.121,-1.18 -5.347,-1.961 l 1.492,-2.385 c 0.959,0.56 2.473,1.182 3.855,1.52 l 0,-3.793 -0.935,-0.335 c -1.826,-0.671 -4.057,-1.756 -4.057,-4.481 0,-2.493 1.85,-4.298 4.992,-4.5 l 0,-2.03 2.342,0 0,2.143 c 1.716,0.263 3.408,0.843 4.637,1.47 l -1.494,2.43 c -0.848,-0.4 -2.05,-0.826 -3.144,-1.071 l 0,3.586 c 0.265,0.092 0.557,0.177 0.847,0.291 1.849,0.673 4.3,1.741 4.3,4.635 0,2.606 -2.028,4.392 -5.147,4.593 l 0,2.005 -2.341,0 z m 0,-12.255 0,-2.968 c -0.846,0.158 -1.491,0.625 -1.491,1.448 -10e-4,0.759 0.574,1.186 1.491,1.52 z m 2.342,4.28 0,3.185 c 0.912,-0.174 1.65,-0.67 1.65,-1.559 0,-0.787 -0.65,-1.231 -1.65,-1.626 z"
         id="path12"
         inkscape:connector-curvature="0" /></g><path
       d="m 70.448,16.59 -17.372,0.008 -0.382,0 -0.12,0 0,-0.008 -19.54,0 2.356,-5.951 -14.073,0 2.357,5.951 -2.222,0 c -4.76,0 -4.76,7.382 0.003,7.369 l 3.644,0 c -6.859,1.58 -11.994,7.724 -11.994,15.057 0,8.527 6.937,15.462 15.463,15.462 8.526,0 15.462,-6.936 15.462,-15.463 0,-7.333 -5.135,-13.477 -11.994,-15.057 l 17.85,0 0,3.558 0.016,60.359 c 0,2.449 1.989,4.44 4.441,4.44 2.454,0 4.441,-1.991 4.441,-4.44 l -0.014,-34.001 3.688,0 0,34.002 c 0,2.449 1.988,4.44 4.448,4.44 2.45,0 4.439,-1.991 4.439,-4.44 l -0.008,-60.359 2.743,0 0,23.677 c 0,4.726 6.662,4.698 6.662,-0.029 l 0,-23.879 C 80.742,21.582 76.057,16.59 70.448,16.59 Z M 41.261,39.015 c 0,6.999 -5.694,12.693 -12.693,12.693 -6.999,0 -12.693,-5.694 -12.693,-12.693 0,-7 5.694,-12.694 12.693,-12.694 6.999,0 12.693,5.694 12.693,12.694 z m -9.704,-25.77 -1.317,3.337 -3.745,0.007 -1.342,-3.345 6.404,0 z"
       id="path14"
       inkscape:connector-curvature="0" /></g></svg>