<?xml version="1.0" standalone="no"?>
<!DOCTYPE svg PUBLIC "-//W3C//DTD SVG 20010904//EN"
 "http://www.w3.org/TR/2001/REC-SVG-20010904/DTD/svg10.dtd">
<svg version="1.0" xmlns="http://www.w3.org/2000/svg"
 width="700.000000pt" height="700.000000pt" viewBox="0 0 700.000000 700.000000"
 preserveAspectRatio="xMidYMid meet">
<metadata>
Created by potrace 1.11, written by Peter Selinger 2001-2013
</metadata>
<g transform="translate(0.000000,700.000000) scale(0.100000,-0.100000)"
fill="#000000" stroke="none">
<path d="M347 6662 c146 -267 334 -576 506 -832 98 -146 297 -432 306 -440 3
-3 22 -27 40 -55 19 -27 37 -52 40 -55 4 -3 49 -61 100 -130 145 -192 340
-434 497 -620 84 -99 314 -364 352 -405 127 -139 153 -167 232 -254 119 -133
110 -122 275 -297 282 -297 450 -469 1075 -1097 344 -345 626 -629 628 -631
11 -13 -448 -332 -663 -461 -71 -43 -134 -82 -139 -86 -9 -8 362 -389 379
-389 4 0 211 204 460 453 249 249 460 459 468 465 12 11 34 -1 128 -67 394
-274 762 -632 1075 -1041 44 -58 100 -134 124 -170 24 -36 50 -71 57 -78 7 -7
13 -16 13 -20 1 -4 10 -18 20 -31 l20 -23 190 190 191 190 -28 20 c-16 10 -66
45 -113 77 -526 357 -923 746 -1228 1202 l-81 121 471 472 472 471 -196 196
-195 195 -51 -96 c-68 -126 -128 -225 -225 -371 -82 -124 -243 -341 -259 -351
-5 -3 -150 134 -321 304 -353 351 -458 453 -967 942 -42 40 -151 142 -334 310
-32 30 -69 64 -81 75 -43 41 -133 122 -214 195 -46 41 -89 80 -95 85 -13 12
-296 257 -377 326 -98 84 -265 223 -305 254 -21 17 -65 53 -99 81 -33 28 -134
108 -225 178 -91 71 -178 139 -195 152 -16 13 -64 48 -105 78 -41 31 -79 59
-85 63 -47 38 -400 286 -560 395 -297 201 -816 521 -1032 636 -16 9 -3 -23 54
-126z m3238 -2951 c751 -751 1365 -1368 1365 -1372 0 -10 -159 -164 -173 -167
-7 -1 -626 612 -1377 1363 l-1365 1365 90 90 c49 49 90 88 92 87 1 -1 617
-616 1368 -1366z"/>
<path d="M6525 6689 c-216 -125 -480 -287 -557 -340 -15 -11 -29 -19 -32 -19
-9 0 -439 -292 -615 -418 -258 -184 -598 -442 -806 -611 -96 -78 -301 -246
-305 -251 -3 -3 -32 -27 -65 -55 -46 -38 -398 -341 -450 -387 -6 -6 10 -28 45
-60 30 -27 93 -87 140 -132 47 -44 94 -87 104 -95 16 -13 50 18 404 372 l387
387 90 -90 90 -90 -385 -385 -385 -385 76 -73 c181 -172 251 -237 259 -237 4
0 39 35 78 78 87 95 112 123 171 187 25 28 69 77 96 109 28 33 55 64 60 70
231 253 672 803 931 1161 147 202 384 554 465 690 30 50 56 92 59 95 20 18
347 591 338 590 -2 0 -88 -50 -193 -111z"/>
<path d="M971 3336 l-193 -194 471 -471 471 -471 -47 -72 c-125 -194 -209
-304 -388 -507 -113 -128 -314 -317 -490 -462 -117 -95 -289 -221 -442 -323
l-82 -55 173 -173 c95 -95 182 -181 193 -191 20 -17 21 -16 73 60 54 78 249
344 260 353 3 3 41 48 85 100 203 241 469 500 690 670 39 30 72 57 75 60 12
12 212 153 247 174 8 4 180 -161 478 -459 255 -256 468 -465 472 -465 5 0 94
86 198 191 152 152 187 193 175 200 -8 6 -97 61 -197 124 -151 93 -364 236
-408 272 -5 4 -52 39 -103 77 l-94 69 363 363 c200 200 359 367 355 371 -4 4
-81 83 -169 176 l-162 167 -380 -380 -380 -380 -90 90 -90 90 382 383 382 382
-27 26 c-15 14 -91 92 -168 172 l-142 147 -208 -206 c-115 -113 -285 -280
-377 -372 -188 -187 -163 -177 -227 -93 -14 18 -35 45 -46 59 -48 60 -193 274
-251 367 -59 97 -74 124 -143 250 -18 33 -35 63 -39 67 -4 4 -94 -80 -200
-186z"/>
</g>
</svg>
